<svg xmlns="http://www.w3.org/2000/svg" viewBox="0 0 1386 891" width="1386" height="891"><defs></defs><g transform="matrix(1,0,0,1,-266.430235706,-61.108640328)">
<g>
	<g>
		<g transform="matrix(1,0,0,-1,0,967.068530592)">
			<g>
				<g transform="matrix(1,0,0,1,178.442619955,156.660229847)">
					<g>
						<g transform="matrix(1,0,0,1,16,0)">
							<g>
								<g>
									<path d="M71.987616,-142.55159L 161.875938,-142.55159 L 161.875938,168.540593 L 71.987616,168.540593 L 71.987616,-142.55159 Z" fill="#ffe882"/>
								</g>
								<g>
									<path d="M161.875938,168.540593L 765.55738,168.540593 L 765.55738,258.428915 L 161.875938,258.428915 L 161.875938,168.540593 Z" fill="#ffe882"/>
								</g>
								<g>
									<path d="M72.029529,165.772973C72.001654,166.692134 71.987616,167.614742 71.987616,168.540593 C71.987616,217.942961 111.95725,258.109505 161.285208,258.428915 C161.285208,258.428915 162.470505,258.428915 162.470505,258.428915 C163.196918,258.424211 163.921302,258.410866 164.643558,258.388978 C164.643558,258.388978 164.643558,165.772973 164.643558,165.772973 C164.643558,165.772973 72.029529,165.772973 72.029529,165.772973 L 72.029529,165.772973 Z" fill="#ffe882"/>
								</g>
								<g>
									<path d="M1368.238822,254.685438L 1458.127144,254.685438 L 1458.127144,575.391188 L 1368.238822,575.391188 L 1368.238822,254.685438 Z" fill="#ffe882"/>
								</g>
							</g>
						</g>
					</g>
					<g>
						<path d="M177.875938,123.596432C177.875938,123.596432 174.13438,123.596432 174.13438,123.596432 C174.13438,123.596432 174.13438,172.28407 174.13438,172.28407 C174.13438,172.28407 222.822018,172.28407 222.822018,172.28407 C222.822018,172.28407 222.822018,168.540593 222.822018,168.540593 C222.821378,168.540593 222.820739,168.540593 222.820099,168.540593 C198.020595,168.540593 177.875938,148.395936 177.875938,123.596432 L 177.875938,123.596432 Z" fill="#ffe882"/>
					</g>
				</g>
			</g>
		</g>
		<g transform="matrix(1,0,0,-1,0,967.068530592)">
			<g transform="matrix(-1,0,0,-1,1919,740.289967619)">
				<g transform="matrix(1,0,0,1,178.442619955,156.660229847)">
					<g>
						<g transform="matrix(1,0,0,1,16,0)">
							<g>
								<g>
									<path d="M161.877856,168.542511L 765.559298,168.542511 L 765.559298,258.430833 L 161.877856,258.430833 L 161.877856,168.542511 Z" fill="#ffe882"/>
								</g>
								<g>
									<path d="M72.029529,165.772973C72.001654,166.692134 71.987616,167.614742 71.987616,168.540593 C71.987616,217.942961 111.95725,258.109505 161.285208,258.428915 C161.285208,258.428915 162.470505,258.428915 162.470505,258.428915 C163.196918,258.424211 163.921302,258.410866 164.643558,258.388978 C164.643558,258.388978 164.643558,165.772973 164.643558,165.772973 C164.643558,165.772973 72.029529,165.772973 72.029529,165.772973 L 72.029529,165.772973 Z" fill="#ffe882"/>
								</g>
							</g>
						</g>
					</g>
					<g>
						<path d="M177.875938,123.596432C177.875938,123.596432 174.13438,123.596432 174.13438,123.596432 C174.13438,123.596432 174.13438,172.28407 174.13438,172.28407 C174.13438,172.28407 222.822018,172.28407 222.822018,172.28407 C222.822018,172.28407 222.822018,168.540593 222.822018,168.540593 C222.821378,168.540593 222.820739,168.540593 222.820099,168.540593 C198.020595,168.540593 177.875938,148.395936 177.875938,123.596432 L 177.875938,123.596432 Z" fill="#ffe882"/>
					</g>
				</g>
			</g>
		</g>
	</g>
	<g>
		<g transform="matrix(1,0,0,1,0,-219.148021144)">
			<g>
				<g transform="matrix(1,0,0,1,178.442619955,156.660229847)">
					<g>
						<g transform="matrix(1,0,0,1,16,0)">
							<g>
								<g>
									<path d="M71.987616,123.596432L 161.875938,123.596432 L 161.875938,168.540593 L 71.987616,168.540593 L 71.987616,123.596432 Z" fill="#ffe882"/>
								</g>
								<g>
									<path d="M161.875938,168.540593L 765.55738,168.540593 L 765.55738,258.428915 L 161.875938,258.428915 L 161.875938,168.540593 Z" fill="#ffe882"/>
								</g>
								<g>
									<path d="M164.643558,168.540593C164.643558,168.540593 161.877856,168.540593 161.877856,168.540593 C161.877856,168.540593 71.987616,168.540593 71.987616,168.540593 C71.987616,218.140659 112.27779,258.430833 161.877856,258.430833 C162.803063,258.430833 163.725031,258.416815 164.643558,258.388978 C164.643558,258.388978 164.643558,168.540593 164.643558,168.540593 L 164.643558,168.540593 Z" fill="#ffe882"/>
								</g>
							</g>
						</g>
					</g>
					<g>
						<path d="M177.877856,123.596432C177.877856,123.596432 174.13438,123.596432 174.13438,123.596432 C174.13438,123.596432 174.13438,172.28407 174.13438,172.28407 C174.13438,172.28407 222.822018,172.28407 222.822018,172.28407 C222.822018,172.28407 222.822018,168.540593 222.822018,168.540593 C198.022514,168.540593 177.877856,148.395936 177.877856,123.596432 L 177.877856,123.596432 Z" fill="#ffe882"/>
					</g>
				</g>
			</g>
		</g>
		<g transform="matrix(1,0,0,1,0,-219.148021144)">
			<g transform="matrix(-1,0,0,-1,1919,740.289967619)">
				<g transform="matrix(1,0,0,1,178.442619955,156.660229847)">
					<g>
						<g transform="matrix(1,0,0,1,16,0)">
							<g>
								<g>
									<path d="M71.987616,123.596432L 161.875938,123.596432 L 161.875938,168.540593 L 71.987616,168.540593 L 71.987616,123.596432 Z" fill="#ffe882"/>
								</g>
								<g>
									<path d="M161.875938,168.540593L 765.55738,168.540593 L 765.55738,258.428915 L 161.875938,258.428915 L 161.875938,168.540593 Z" fill="#ffe882"/>
								</g>
								<g>
									<path d="M72.029471,165.774891C72.001635,166.693418 71.987616,167.615386 71.987616,168.540593 C71.987616,218.140659 112.27779,258.430833 161.877856,258.430833 C162.803063,258.430833 163.725031,258.416815 164.643558,258.388978 C164.643558,258.388978 164.643558,165.774891 164.643558,165.774891 C164.643558,165.774891 72.029471,165.774891 72.029471,165.774891 L 72.029471,165.774891 Z" fill="#ffe882"/>
								</g>
							</g>
						</g>
					</g>
					<g>
						<path d="M177.875938,123.596432C177.875938,123.596432 174.13438,123.596432 174.13438,123.596432 C174.13438,123.596432 174.13438,172.28407 174.13438,172.28407 C174.13438,172.28407 222.822018,172.28407 222.822018,172.28407 C222.822018,172.28407 222.822018,168.540593 222.822018,168.540593 C222.821378,168.540593 222.820739,168.540593 222.820099,168.540593 C198.020595,168.540593 177.875938,148.395936 177.875938,123.596432 L 177.875938,123.596432 Z" fill="#ffe882"/>
					</g>
				</g>
			</g>
		</g>
	</g>
</g></g></svg>